<?xml version="1.0" encoding="UTF-8"?><svg id="Layer_1" xmlns="http://www.w3.org/2000/svg" xmlns:xlink="http://www.w3.org/1999/xlink" viewBox="0 0 788.12 393.51"><defs><style>.cls-1{fill:url(#linear-gradient-2);}.cls-2{fill:#2d4ea1;}.cls-3{fill:url(#linear-gradient-3);}.cls-4{fill:url(#linear-gradient);}.cls-5{fill:url(#linear-gradient-4);}</style><linearGradient id="linear-gradient" x1="313.71" y1="89.43" x2="415.47" y2="89.43" gradientTransform="matrix(1, 0, 0, 1, 0, 0)" gradientUnits="userSpaceOnUse"><stop offset=".31" stop-color="#71a5d8"/><stop offset="1" stop-color="#3351a2"/></linearGradient><linearGradient id="linear-gradient-2" x1="308.4" y1="201.54" x2="390.09" y2="201.54" gradientTransform="matrix(1, 0, 0, 1, 0, 0)" gradientUnits="userSpaceOnUse"><stop offset="0" stop-color="#3351a2"/><stop offset=".92" stop-color="#71a5d8"/></linearGradient><linearGradient id="linear-gradient-3" x1="439.23" y1="136.3" x2="440.59" y2="32.58" gradientTransform="matrix(1, 0, 0, 1, 0, 0)" gradientUnits="userSpaceOnUse"><stop offset="0" stop-color="#a1c54d"/><stop offset="1" stop-color="#62883c"/></linearGradient><linearGradient id="linear-gradient-4" x1="346.64" y1="243.86" x2="492.03" y2="158.43" gradientTransform="matrix(1, 0, 0, 1, 0, 0)" gradientUnits="userSpaceOnUse"><stop offset=".26" stop-color="#d7e69e"/><stop offset=".9" stop-color="#5f823a"/></linearGradient></defs><g><path class="cls-2" d="M0,311.04H48.96v16.11h-15.25v64.42H14.82v-64.42H0v-16.11Z"/><path class="cls-2" d="M55.73,391.57v-80.53h18.9v30.92h13.1v-30.92h18.9v80.53h-18.9v-33.5h-13.1v33.5h-18.9Z"/><path class="cls-2" d="M115.96,391.57v-80.53h43.27v16.11h-24.37v14.82h23.62v16.11h-23.62v17.39h25.66v16.11h-44.56Z"/><path class="cls-2" d="M227.95,339.17v-5.15c0-3.44-.56-6.03-1.66-7.78-1.11-1.75-2.56-2.63-4.35-2.63-2.94-.07-4.89,.64-5.85,2.15s-1.45,3.58-1.45,6.23l-.11,39.84c0,2.29,.5,4.06,1.5,5.31,1,1.25,2.75,1.88,5.26,1.88,1.57,0,2.83-.38,3.76-1.13,.93-.75,1.65-1.7,2.15-2.84,.5-1.14,.81-2.4,.91-3.76,.11-1.36,.16-2.65,.16-3.87v-7.3h18.9v9.88c0,3.44-.52,6.6-1.56,9.5-1.04,2.9-2.65,5.39-4.83,7.46-2.18,2.08-5.01,3.69-8.48,4.83-3.47,1.14-7.61,1.72-12.4,1.72-4.37,0-8.07-.57-11.11-1.72-3.04-1.14-5.53-2.81-7.46-4.99-1.93-2.18-3.35-4.87-4.24-8.05-.9-3.18-1.34-6.82-1.34-10.9v-33.07c0-8.8,2.06-15.28,6.17-19.43,4.12-4.15,10.5-6.23,19.17-6.23,4.01,0,7.61,.45,10.79,1.34,3.18,.9,5.89,2.27,8.11,4.13,2.22,1.86,3.92,4.28,5.1,7.25,1.18,2.97,1.77,6.5,1.77,10.58v6.76h-18.9Z"/><path class="cls-2" d="M256.19,391.57v-80.53h43.27v16.11h-24.37v14.82h23.62v16.11h-23.62v17.39h25.66v16.11h-44.56Z"/><path class="cls-2" d="M308.91,391.57v-80.53h18.9v64.42h23.09v16.11h-41.98Z"/><path class="cls-2" d="M357.55,391.57v-80.53h43.27v16.11h-24.37v14.82h23.62v16.11h-23.62v17.39h25.66v16.11h-44.56Z"/><path class="cls-2" d="M429.7,391.57h-18.9v-80.53h27.59c7.8,0,13.62,1.7,17.45,5.1,3.83,3.4,5.75,9.11,5.75,17.13,0,4.29-.68,7.98-2.04,11.06-1.36,3.08-4.01,5.51-7.95,7.3v.21c2.65,.57,4.83,1.76,6.55,3.54,1.72,1.79,2.65,4.08,2.79,6.87,.14,1.65,.27,3.65,.38,6.01,.11,2.36,.21,4.76,.32,7.19,.11,2.43,.23,4.76,.38,6.98,.14,2.22,.36,3.97,.64,5.26,.5,1.22,1.11,2.15,1.83,2.79v1.07h-20.61c-.29-.79-.52-1.56-.7-2.31-.18-.75-.31-1.52-.38-2.31-.14-3.58-.18-6.96-.11-10.15,.07-3.19-.04-6.03-.32-8.54-.29-2.51-.88-4.51-1.77-6.01-.9-1.5-2.45-2.32-4.67-2.47h-6.23v31.78Zm0-46.28h6.44c1.36,0,2.49-.28,3.38-.86,.89-.57,1.59-1.32,2.09-2.25,.5-.93,.84-2,1.02-3.22,.18-1.22,.27-2.43,.27-3.65,0-2.36-.25-4.22-.75-5.58-.5-1.36-1.29-2.36-2.36-3.01-1.07-.64-2.45-1.02-4.13-1.13-1.68-.11-3.67-.12-5.96-.05v19.76Z"/><path class="cls-2" d="M534.93,391.68l-.86-7.19h-.21c-1.93,3.44-4.12,5.8-6.55,7.09-2.43,1.29-5.69,1.93-9.77,1.93s-7.35-.64-10.04-1.93c-2.68-1.29-4.85-3.1-6.5-5.42-1.65-2.33-2.83-5.05-3.54-8.16-.72-3.11-1.07-6.5-1.07-10.15v-33.07c0-8.8,2.06-15.28,6.17-19.43,4.11-4.15,10.5-6.23,19.17-6.23,8.09,0,14.39,1.83,18.9,5.48,4.51,3.65,6.76,9.59,6.76,17.82v6.01h-18.9v-4.4c0-3.44-.36-6.01-1.07-7.73-.72-1.72-2.33-2.61-4.83-2.68-2.94-.07-4.89,.64-5.85,2.15-.97,1.5-1.45,3.58-1.45,6.23v39.84c0,2.29,.54,4.06,1.61,5.31,1.07,1.25,2.86,1.88,5.37,1.88,1.57,0,2.81-.29,3.7-.86,.89-.57,1.56-1.34,1.99-2.31s.7-2.07,.81-3.33c.11-1.25,.16-2.52,.16-3.81v-6.34h-6.76v-14.5h25.66v43.81h-12.88Z"/><path class="cls-2" d="M575.95,391.57h-18.9v-80.53h27.59c7.8,0,13.62,1.7,17.45,5.1,3.83,3.4,5.75,9.11,5.75,17.13,0,4.29-.68,7.98-2.04,11.06-1.36,3.08-4.01,5.51-7.95,7.3v.21c2.65,.57,4.83,1.76,6.55,3.54,1.72,1.79,2.65,4.08,2.79,6.87,.14,1.65,.27,3.65,.38,6.01,.11,2.36,.21,4.76,.32,7.19,.11,2.43,.23,4.76,.38,6.98,.14,2.22,.36,3.97,.64,5.26,.5,1.22,1.11,2.15,1.83,2.79v1.07h-20.61c-.29-.79-.52-1.56-.7-2.31-.18-.75-.31-1.52-.38-2.31-.14-3.58-.18-6.96-.11-10.15,.07-3.19-.04-6.03-.32-8.54-.29-2.51-.88-4.51-1.77-6.01-.9-1.5-2.45-2.32-4.67-2.47h-6.23v31.78Zm0-46.28h6.44c1.36,0,2.49-.28,3.38-.86,.89-.57,1.59-1.32,2.09-2.25,.5-.93,.84-2,1.02-3.22,.18-1.22,.27-2.43,.27-3.65,0-2.36-.25-4.22-.75-5.58-.5-1.36-1.29-2.36-2.36-3.01-1.07-.64-2.45-1.02-4.13-1.13-1.68-.11-3.67-.12-5.96-.05v19.76Z"/><path class="cls-2" d="M667.75,365.91c0,4.51-.43,8.5-1.29,11.97-.86,3.47-2.29,6.35-4.29,8.64-2,2.29-4.62,4.03-7.84,5.21-3.22,1.18-7.23,1.77-12.03,1.77s-8.82-.59-12.08-1.77c-3.26-1.18-5.91-2.92-7.94-5.21-2.04-2.29-3.51-5.17-4.4-8.64-.9-3.47-1.34-7.46-1.34-11.97v-32.75c0-7.8,2.22-13.76,6.66-17.88,4.44-4.11,10.81-6.17,19.11-6.17s14.62,2.06,18.95,6.17c4.33,4.12,6.5,10.08,6.5,17.88v32.75Zm-18.9-31.46c0-1.22-.05-2.47-.16-3.76s-.38-2.45-.81-3.49c-.43-1.04-1.09-1.9-1.99-2.58-.9-.68-2.13-1.02-3.7-1.02s-2.7,.34-3.6,1.02c-.9,.68-1.58,1.54-2.04,2.58-.47,1.04-.77,2.2-.91,3.49s-.21,2.54-.21,3.76v33.07c0,1.15,.07,2.4,.21,3.76,.14,1.36,.45,2.61,.91,3.76,.46,1.15,1.16,2.09,2.09,2.84,.93,.75,2.15,1.13,3.65,1.13s2.7-.38,3.6-1.13c.89-.75,1.56-1.7,1.99-2.84,.43-1.14,.7-2.4,.81-3.76,.11-1.36,.16-2.61,.16-3.76v-33.07Z"/><path class="cls-2" d="M676.45,311.04h18.9v60.77c0,1,.09,1.93,.27,2.79,.18,.86,.5,1.61,.97,2.26,.47,.64,1.13,1.16,1.99,1.56,.86,.4,1.97,.59,3.33,.59,1.22,0,2.24-.23,3.06-.7,.82-.46,1.48-1.07,1.99-1.83,.5-.75,.86-1.59,1.07-2.52,.21-.93,.32-1.83,.32-2.68v-60.24h18.9v58.3c0,3.44-.41,6.62-1.24,9.56-.82,2.94-2.24,5.48-4.24,7.62-2,2.15-4.64,3.85-7.89,5.1-3.26,1.25-7.28,1.88-12.08,1.88-8.02,0-14.25-1.95-18.68-5.85-4.44-3.9-6.66-10-6.66-18.31v-58.3Z"/><path class="cls-2" d="M737.33,391.57v-80.53h22.44c1.79,0,3.76,.07,5.91,.21,2.15,.14,4.28,.43,6.39,.86,2.11,.43,4.12,1.09,6.01,1.99,1.9,.9,3.49,2.09,4.78,3.6,2.22,2.51,3.65,5.23,4.3,8.16,.64,2.94,.97,6.05,.97,9.34,0,2.15-.14,4.35-.43,6.6-.29,2.26-.84,4.39-1.66,6.39-.82,2-1.92,3.83-3.28,5.48-1.36,1.65-3.11,2.97-5.26,3.97-1.65,.79-3.35,1.36-5.1,1.72s-3.53,.59-5.31,.7c-1.79,.11-3.6,.14-5.42,.11-1.83-.04-3.63-.02-5.42,.05v31.35h-18.9Zm18.9-45.85c1.79-.07,3.63-.12,5.53-.16,1.9-.04,3.6-.66,5.1-1.88,1-1.07,1.65-2.34,1.93-3.81,.29-1.47,.43-2.92,.43-4.35,0-.79-.04-1.65-.11-2.58-.07-.93-.23-1.83-.48-2.68-.25-.86-.61-1.66-1.07-2.42-.47-.75-1.09-1.31-1.88-1.66-.93-.36-2.02-.55-3.28-.59-1.25-.04-2.63-.05-4.13-.05h-2.04v20.19Z"/></g><g><path class="cls-4" d="M399.22,0s-.59,15.45-24.46,46.93c-10.53,14.04-42.49,62.97-45.06,67.18-2.57,4.21-13.11,25.87-13.46,27.39s-11,31.37,14.16,36.63c12.41,1.87,26.89-.38,28.91-.82,2.11-4.33,43.19-80.99,43.19-80.99,0,0,14.28-24.58,12.87-47.52-3.28-23.17-8.97-41.67-16.15-48.81Z"/><path class="cls-1" d="M390.09,171.11l-19.27,79.31s-1.64,5.77,.94,8.74c-4.53-1.01-61.13-16.78-63.36-83.84,.7-12.29,5.28-28.19,7.15-31.42-3.17,11.87-2.45,21.75,3.27,28.73,12.29,14.98,71.28-1.52,71.28-1.52Z"/><path class="cls-3" d="M420.52,55.83s47.28,59.22,57.58,102.06c1.87,11.24,1.17,4.56,1.17,4.56,0,0-7.96-46.7-80.64-22.89,0,0,8.96-23.43,16.21-48.01,4.74-14.89,6.49-26.36,5.67-35.72Z"/><path class="cls-5" d="M433.87,132.81l-57.35,114.72s-5.38,7.49,0,10.77c5.38,3.28,33.47,12.41,73.73-16.15,21.77-23.64,31.37-35.35,29.15-77.74-.83-10.98-12.77-34.41-45.54-31.6Z"/></g><polygon class="cls-2" points="270.2 307.65 286.88 294.38 305.13 294.38 284.8 307.65 270.2 307.65"/></svg>